# xmcd
#
# Track frame offsets:
#	150
#	17433
#	38035
#	53090
#	73168
#	87285
#	100665
#	113513
#	125638
#	141030
#	157078
#	171480
#	186560
#	199493
#	210900
#	221550
#	235933
#	248280
#
# Disc length: 3397 seconds
#
# Revision: 3
# Processed by: cddbd v1.5.2PL0 Copyright (c) Steve Scherf et al.
# Submitted via: audiograbber 1.83.01
#
DISCID=fc0d4312
DTITLE=Various Artist - Sweet Country-Music - Live
DYEAR=1991
DGENRE=Country
TTITLE0=Atlanta - Sweet Country Music
TTITLE1=Jerry Lee Lewis - Lucille
TTITLE2=Jeannie C. Rilley - Harper Valley P.T.A.
TTITLE3=Tammy Wynette - Amazing Grace - Will The Circle Be Unbroken - I Saw The
TTITLE3=Light  
TTITLE4=Sweethearts Of Rodeo - Chains Of Gold
TTITLE5=Kathy Mattea - Ball And Chain
TTITLE6=Ronnie McDowell - Wandering Eyes
TTITLE7=Boxcar Willie - Hobo Heaven
TTITLE8=Nitty Gritty Dirt Band - Dance Little Jean
TTITLE9=Bellamy Brothers - Redneck Girl
TTITLE10=Forester Sisters - I Fell In Love Again Last Night
TTITLE11=Frenchie Burke - (Fiddlin' Of) Jacques Pierre Bordeaus
TTITLE12=Becky Hobbs - Oklahoma Heart
TTITLE13=Mark Gray - Walking After Midnight
TTITLE14=Mel McDaniel - Louisiana Saturday Night
TTITLE15=George Jones - Who's Gonna Fill Their Shoes
TTITLE16=Bobby Bare - Tequilla Sheila
TTITLE17=Frenchie Burke - Faded Love
EXTD=YEAR: 1991
EXTT0=
EXTT1=
EXTT2=
EXTT3=
EXTT4=
EXTT5=
EXTT6=
EXTT7=
EXTT8=
EXTT9=
EXTT10=
EXTT11=
EXTT12=
EXTT13=
EXTT14=
EXTT15=
EXTT16=
EXTT17=
PLAYORDER=
